<?xml version="1.0" encoding="utf-8"?>
<!-- Generator: Adobe Illustrator 21.1.0, SVG Export Plug-In . SVG Version: 6.00 Build 0)  -->
<svg version="1.1" id="Layer_1" xmlns="http://www.w3.org/2000/svg" xmlns:xlink="http://www.w3.org/1999/xlink" x="0px" y="0px"
	 viewBox="0 0 297 251" style="enable-background:new 0 0 297 251;" xml:space="preserve">
<style type="text/css">
	.st0{fill:#409BD6;}
</style>
<path class="st0" d="M117.9,187.6c58,0,89.8-48.1,89.8-89.8c0-1.4,0-2.7-0.1-4.1c6.1-4.4,11.5-10,15.8-16.4
	c-5.6,2.5-11.7,4.2-18.1,5c6.5-3.9,11.5-10.1,13.9-17.5c-6.1,3.6-12.8,6.2-20,7.7c-5.8-6.1-13.9-9.9-23-9.9
	c-17.4,0-31.5,14.1-31.5,31.5c0,2.5,0.3,4.9,0.9,7.2c-26.2-1.3-49.5-13.9-65-33c-2.7,4.6-4.3,10.1-4.3,15.8
	c0,10.9,5.6,20.6,14.1,26.2c-5.2-0.1-10-1.6-14.3-3.9c0,0.1,0,0.3,0,0.4c0,15.3,10.9,28,25.3,30.9c-2.6,0.7-5.4,1.1-8.3,1.1
	c-2,0-4-0.2-6-0.6c4,12.6,15.6,21.7,29.4,21.9c-10.8,8.4-24.4,13.5-39.2,13.5c-2.6,0-5-0.1-7.5-0.5
	C83.5,182.3,100.1,187.6,117.9,187.6"/>
</svg>
