<?xml version="1.0" encoding="utf-8"?>
<!-- Generator: Adobe Illustrator 21.1.0, SVG Export Plug-In . SVG Version: 6.00 Build 0)  -->
<svg version="1.1" id="Layer_1" xmlns="http://www.w3.org/2000/svg" xmlns:xlink="http://www.w3.org/1999/xlink" x="0px" y="0px"
	 viewBox="0 0 297 251" style="enable-background:new 0 0 297 251;" xml:space="preserve">
<style type="text/css">
	.st0{fill-rule:evenodd;clip-rule:evenodd;fill:#FFFFFF;}
	.st1{fill-rule:evenodd;clip-rule:evenodd;fill:#E20613;}
</style>
<path class="st0" d="M215.4,73.3H77.6c-6.4,0-11.5,5.2-11.5,11.5v81.4c0,6.4,5.2,11.5,11.5,11.5h137.7c6.4,0,11.5-5.2,11.5-11.5
	V84.8C226.9,78.4,221.7,73.3,215.4,73.3L215.4,73.3z"/>
<path class="st1" d="M215.4,63.8H77.6c-11.6,0-21,9.4-21,21v81.4c0,11.6,9.4,21,21,21h137.7c11.6,0,21-9.4,21-21V84.8
	C236.4,73.2,227,63.8,215.4,63.8L215.4,63.8z"/>
<path class="st0" d="M226.9,166.2c0,6.4-5.2,11.5-11.5,11.5H77.6c-6.4,0-11.5-5.2-11.5-11.5V84.8c0-6.4,5.2-11.5,11.5-11.5h137.7
	c6.4,0,11.5,5.2,11.5,11.5V166.2L226.9,166.2z"/>
<path class="st1" d="M79.7,84.1H115c18.3,0,28.5,14.2,28.5,38.7c0,24.4-8.2,44.1-28.5,44.1H79.7V84.1L79.7,84.1z M98.7,96.3h10.2
	c9.5,0,15.6,6.8,15.6,28.5c0,21.7-6.1,29.2-15.6,29.2H98.7V96.3L98.7,96.3z"/>
<path class="st1" d="M152.9,84.1c0,0,24.4,0,39.4,0c17.6,0,31.2,27.8,4.1,40c27.8,3.4,23.1,42.7-6.1,42.7h-37.3V84.1L152.9,84.1z
	 M171.9,96.3h8.8c14.3,0,14.3,21,0,21h-8.8V96.3L171.9,96.3z M171.9,131.6h10.9c14.9,0,14.9,22.4,0,22.4h-10.9V131.6L171.9,131.6z"
	/>
</svg>
