<?xml version="1.0" encoding="utf-8"?>
<!-- Generator: Adobe Illustrator 21.1.0, SVG Export Plug-In . SVG Version: 6.00 Build 0)  -->
<svg version="1.1" id="Layer_1" xmlns="http://www.w3.org/2000/svg" xmlns:xlink="http://www.w3.org/1999/xlink" x="0px" y="0px"
	 viewBox="0 0 297 251" style="enable-background:new 0 0 297 251;" xml:space="preserve">
<style type="text/css">
	.st0{fill:#1D1D1B;}
	.st1{fill:#86754D;}
</style>
<g>
	<g>
		<g>
			<path class="st0" d="M97.6,149.3c0-2.2-1.1-4.8-6.2-4.8h-9.1v15.7h3.2v-6.1h5.9C96.5,154.1,97.6,151.5,97.6,149.3z M85.5,147.4
				H91c3.3,0,3.6,0.9,3.6,1.8c0,1-0.3,1.8-3.6,1.8h-5.5C85.5,151.1,85.5,147.4,85.5,147.4z"/>
			<path class="st0" d="M117,153.6v-9.1h-3.2v9.1c0,2.7-1.6,4.1-4.9,4.1s-4.9-1.3-4.9-4.1v-9.1h-3.2v9.1c0,4.4,2.9,6.9,8,6.9
				S117,158,117,153.6z"/>
			<path class="st0" d="M137.3,155.4c0-1.9-1-2.9-1.9-3.5c0.7-0.6,1.4-1.5,1.4-3c0-4.4-4.7-4.4-6.2-4.4h-8.9v15.7h8
				C132.1,160.2,137.3,160.2,137.3,155.4z M129.5,147.4c3.1,0,4.1,0.3,4.1,1.6c0,0.4,0,1.6-3.5,1.6h-5.3v-3.2H129.5z M130.7,157.2
				h-6v-3.7h6.1c3.2,0,3.2,1.4,3.2,2C134.1,156.5,133.5,157.2,130.7,157.2z"/>
			<polygon class="st0" points="155.8,157.2 145,157.2 145,144.5 141.8,144.5 141.8,160.2 155.8,160.2 			"/>
			<rect x="158.8" y="144.5" class="st0" width="3.2" height="15.7"/>
			<path class="st0" d="M182.9,156l0.3-0.6l-2.8-1.4l-0.3,0.6c-1.1,2-2.8,3-5.3,3c-3.6,0-5.8-1.8-5.8-5c0-3.6,2-5.5,5.6-5.5
				c2.7,0,4.4,1,5.3,2.9l0.3,0.7l2.8-1.3l-0.3-0.6c-1.3-2.8-4.2-4.5-8.1-4.5c-5.5,0-8.8,3.2-8.8,8.2c0,3.9,2.3,8.2,8.8,8.2
				C178.6,160.5,181.3,159,182.9,156z"/>
			<rect x="186.8" y="144.5" class="st0" width="3.2" height="15.7"/>
			<path class="st0" d="M202.4,150.5c-2.9-0.3-4.6-0.5-4.6-1.7c0-1.6,2.6-1.8,4.2-1.8c3.4,0,4.6,1.5,5.2,2.2l0.6,0.6l2.3-1.9
				l-0.4-0.6c-0.5-0.8-2.7-3.2-7.6-3.2c-6.4,0-7.4,3.1-7.4,5c0,3.7,4.2,4.1,7.5,4.4c3,0.3,4.9,0.6,4.9,1.8c0,2.1-4,2.1-4.5,2.1
				c-3.9,0-5.1-1.6-5.9-2.6l-0.4-0.6l-1.9,1.6l-0.6,0.5l0.5,0.6c1.3,1.4,3.2,3.5,8.1,3.5c3.6,0,7.9-1.3,7.9-5.1
				C210.1,151.3,205.8,150.9,202.4,150.5z"/>
			<path class="st0" d="M96.5,181.5h5.6c-0.6,2-2.9,2.8-4.8,2.8c-3.6,0-5.7-1.8-5.7-5c0-3.6,1.9-5.5,5.6-5.5c1.1,0,3.9,0.3,5,2.8
				l0.3,0.7l2.7-1.5l-0.3-0.6c-1.2-2.7-4.1-4.3-7.7-4.3c-5.5,0-8.8,3.2-8.8,8.2c0,3.9,2.3,8.2,8.8,8.2c2.4,0,3.9-0.6,5-1.4v1.1h3
				v-8.4h-8.9V181.5z"/>
			<path class="st0" d="M125.7,176c0-2.2-1.1-4.7-6.3-4.7h-8.9v15.7h3.2v-6.3h4.5l4.6,6.3h3.9l-4.8-6.5
				C123.8,180,125.7,178.6,125.7,176z M113.6,174.3h5.4c3,0,3.6,0.6,3.6,1.7c0,1.1-0.6,1.7-3.6,1.7h-5.4V174.3z"/>
			<path class="st0" d="M138,171c-5.4,0-9.1,3.3-9.1,8.2c0,5.6,4.7,8.1,9.1,8.1s9.1-2.5,9.1-8.1C147,174.3,143.4,171,138,171z
				 M138,184.3c-1.4,0-5.8-0.4-5.8-5.5c0-3,2.4-5.1,5.8-5.1s5.8,2.1,5.8,5.1C143.8,183.9,139.3,184.3,138,184.3z"/>
			<path class="st0" d="M163.4,180.3c0,2.7-1.6,4.1-4.9,4.1c-3.3,0-4.9-1.3-4.9-4.1v-9.1h-3.2v9.1c0,4.4,2.9,6.9,8,6.9
				c5.2,0,8-2.5,8-6.9v-9.1h-3.2V180.3z"/>
			<path class="st0" d="M179.7,171.3h-9.1v15.7h3.2v-6.1h5.9c5.1,0,6.2-2.6,6.2-4.8C186,173.9,184.9,171.3,179.7,171.3z
				 M173.9,174.3h5.5c3.3,0,3.6,0.9,3.6,1.8c0,1-0.3,1.8-3.6,1.8h-5.5V174.3z"/>
			<polygon class="st0" points="192.2,180.3 201.4,180.3 201.4,177.4 192.2,177.4 192.2,174.3 203.2,174.3 203.2,171.3 189.1,171.3 
				189.1,186.9 203.4,186.9 203.4,183.9 192.2,183.9 			"/>
		</g>
		<g>
			<g>
				<path class="st1" d="M188,136.5l-9.4-5.5c1.9,0.3,3.5-0.6,5.1-1.7l2.9,3.5l-1.8-4.3c1.9-1.5,3.4-3.1,5.4-3.1
					c5.3-0.1,1.6,6.2,3.5,6.2c2.2,0,4.5-7.1-0.7-10.2c-5.4-3.2-10.1,1.5-13.9,0.6l14.3-6.3h-20.8l-0.8-1.4c3.7,1.7,6.5,0.1,8.2-1.6
					l5.9,0.8l-4.9-1.9c1.1-1.2,2.2-2.2,3.4-1.7c1.8,0.7,2.8,2.2,5.8,2.2c5.1,0.1,8.9-9.1,2.1-13.1c0.5,6.5-2.5,6.8-7.8,3.4l1.8-3
					l-2.7,2.3c-5.1-2.3-7.5,2.2-9.6,3.7c-2.2,1.5-4.1-1.5-6.7,2c3.9-1.3,5.8,2.4,8.4,0c-1.1,6.5-4.8-2-8.6,1.3
					c3.2,0.3,4.9,3.2,7.5,3.2c4.8,0,0.5-9.2,7.2-9.2l-1.1-0.7c3.8-0.4,4,3.4,9.7,3.5c0.6,0.9-1.5,1-3,0.4c-0.3,1.2,7.8,3.9,5.8-5.2
					c2.5,1.4,2,7.1-0.4,9.3c-0.4,0.4-0.9,0.6-1.1,0.2c-0.6-1,1-1,1.5-2.4c-1.8,1.6-4.9,1.5-7-0.5c-2.1-2-5.2-4.3-6.5-0.2
					c-1.3,4.1-2.5,6-4.9,6c-3.4,0.1-7-5.6-10.8-2.5c7.2,0.7,8.9,12.1,15.2,12.2c4.9,0,6-2.2,9.3-2.2s6.6,1.7,6.6,5.9
					c0,2.5-1.3,4-1.3,4s1-2.1,0.5-4.7c-0.4-2.5-2.6-4.1-5.5-4.1c-3.9,0-7.1,6.5-11.5,6.5c-8.8,0-11-16.9-20.3-14.3
					c6.8,4.6,7.5,11.9,11.2,14.7c3.7,2.9,8.1,1.7,10.5,3.8c1,0.9,1.4,2.3,1.7,3.9h-0.8c-0.3-0.8-0.8-1.6-1.5-2.2
					c-2.1-2.2-8.4-1.3-11.3-4.4c-2.9-3.2-5-12.6-10.8-14c5,3.2,6.1,11.5,9.7,15.5c3.5,4.1,8.3,1.9,10.5,4.1c0.4,0.4,0.7,0.8,1,1.1
					h-4.1c-0.4-0.1-0.8-0.1-1.2-0.1c-0.6,0-1.3,0.1-2,0.1h-5.6c-0.8-0.3-1.5-0.6-2-1.3c-2.9-3-2.6-6.1-2.3-9.9
					c0.6,3.5,1.2,11.5,7.2,10.6c-7.5-2.6-3.2-15.5-12.4-18.8c-1-0.4-0.6-3.6,1.8-4.1c-5,1-4.9-0.9-1.5-4.5c-2.2,1.4-4.6,1-5.1,2.5
					c0,0,4.1,6.4,4.1,7.7s-2.7,6.3-3,6.5c-1,0.6-4.3,0.6-5.1,0.3c-0.9-0.3-1.9-3-1.5-3.9c0.6-1.3,5.7-2.4,5.8-4.4
					c0.1-1.6-2-1.7-2-0.9c1.2,0.4,1.7,2.2-1.8,3l0.8-1.3c0,0-2.7,2.1-2.8,2.2c-0.1,0.1-0.8,0.1-1.1,0c-0.4-0.1-4.2-2-3.5-3.8
					c0,0,1.1,0.5,4.1,0.5s3.2-1.3,3.2-1.3s-1.5,0.4-3.1,0.4c-1.6,0-3.1-0.4-3.1-0.4c-1.3-0.3,0.1-1.9,0.5-1.9c0,0,2.9,0,3,0
					s0.4-0.4,0-0.4c-0.3,0-2.2-0.1-2.3-0.5c-0.3-0.8-0.8-5.8-0.8-5.8s0.6-1.6,0.1-2.1c-0.5-0.5-0.8-0.3-0.8-0.3
					c1.3,7-4.1,11.3-7.2,10.5l-0.4-0.1c0.7,0.5,1.6,1,2.7,1.4c-5.7,1.2-8-2.3-9-4.4c-0.5,0.3-0.5,1.6-0.4,2.5
					c-1.2-1.3-1.9-3.3-0.8-4.8c-1.5,0.7-1.5,1-1.5,1c0.1-1.2,2.2-2,3.2-3.4c1-1.4,0.8-3.5-1.5-4.4c0.1,2.2-0.9,3.6-3.1,4.4
					c-2.1,0.7-1.8-1.2-3.7-0.8c3.2,0.8,3,5.1,6.2,7c-4.2-1-5-6.8-10.2-6.2c3-4.2,7.7-0.6,9.7-3.5c-5.1,1.1-8.5-3.1-9.1-7.8
					c-0.9-7.2-7-3.6-6.8-7.2c3,1.4,9.8-3.9,11.8,2.1c2.1,6.2,6.3,8.7,10.1,5.9L114.1,80l2.1,7c-4.3,0.8-9.5-1.7-6.7-7.7
					c-4.1-1.9-9.5,4.9-4.5,10.2c2.3,2.5,7.9,1.5,9.4,6.6l-5.4-0.4l5.5,1.5l1.6,4.9l-12.8-6.3l7.9,9.2c-4.6,2.4-5.8-4.6-11.7-4.4
					c-4.2,0.1-8.8,4.4-6.9,9.4c6.2-3.8,8.2-1.1,10.9,1.5l-3.9,2l4.6-1.4c1.6,1.5,3.6,2.8,6.8,2.5c5.4-0.4,10.1-2.2,11.3-0.7
					c1,1.1-0.1,1.8-2.1,1.8H94.7l10.3,5.5c-1,0.8-3.9,4.3-5.9,4.3c-2,0-6.5-3-7.6,2.3c4.6-0.8,6.9,9.3,16.6,1.3l-4.5,7.5H82.3v2.5
					H210v-2.5L188,136.5L188,136.5z M182.9,106.2c2.3,1-4.9,8.2-7.2,7.9C180.4,112.7,180.6,105.2,182.9,106.2z M183.9,127.3
					c1.6-4.4,6.8-6.3,9-2.5c0.1,0.2-0.1,0.3-0.4,0c-2.7-2.7-6.1-0.1-8.3,2.7C183.9,127.9,183.7,127.7,183.9,127.3z M108.5,79.9
					c-1.3,2.3-1.1,6.7,4.4,8C103.8,90,104,79.6,108.5,79.9z M101.2,108.1c-4.2-2.3-7.9,0.4-7.9,0.4
					C94.5,104.3,102.2,104,101.2,108.1z M103,106.4c-0.6-0.8-1.2-1.6-1.8-1.8c-0.9-0.3-1.8-0.3-2.7-0.2c-1.1,0.1-2,0.1-2.3-0.6
					c-0.2-0.4,0-0.9,0.6-1.3c0.6-0.4,1.4-0.7,2.2-0.8c1-0.1,1.8,0.2,2.3,0.6c0.5,0.4,0.8,0.5,0.8,0.4c0.1-0.1,0.1-0.4,0.1-0.6
					c0-0.1-0.1-0.3,0.1-0.3c1.5,0.3,2.2,1.1,3,2.1c1.3,1.5,3.2,3.9,8,3C112.1,111.5,105.2,110.2,103,106.4z M106.9,112.3
					c-0.3-1.8,9.1-3.2,9.2-0.6C116.2,114,107.2,114.3,106.9,112.3z M155.3,123.8c-3.1,6.7,4.6,10.8,6,12.2c0.2,0.1,0.3,0.4,0.5,0.6
					h-2.6c-0.8-1.6-1.6-2.8-2.5-3.2c0.6,1,1.1,2,1.5,3.2h-1.2C155.2,133.1,152.3,130.3,155.3,123.8z M154.6,136.5h-1.1l-1.3-3.7
					C153.2,133.4,153.9,134.8,154.6,136.5z M151.4,136.5h-1.2c0.5-2,0.8-4.1-0.4-6.7C151.8,131.5,151.7,134.1,151.4,136.5z
					 M149.3,136.5h-1.1c0.4-1.6,0.6-3.2-0.8-5.6C149.5,132.6,149.6,134.6,149.3,136.5z M141.3,136.5c0.6-2.8-0.5-3.6-2.9-6.1
					c3.5,2.4,4.8,4.1,4.6,6.1H141.3z M144.2,131.7c1.8,2,2.3,3.5,2.3,4.8h-1.1C145.5,135.3,145.2,133.8,144.2,131.7z M144,127
					c1.5,0,4.4-0.1,4.5-0.1c0.4,0,0.5,0.1,0.5,0.2c0,0.1-0.2,1-0.5,1c0,0-2.9,0.7-4.6,0.6c-1.6,0.1-4.5-0.6-4.6-0.6
					c-0.3-0.1-0.5-0.8-0.5-1c0-0.1,0.1-0.2,0.5-0.2C139.5,126.9,142.5,127,144,127z M139.6,116.4c-1.3,0.4-1.5,2.4,2.2,3.2
					c-1.1,0.2-4.1-0.4-4.1-2.3C137.5,115.8,139.6,115.6,139.6,116.4z M136.1,119.9c3.4,0.2,6.9,1.9,6.9,1.9c0.4,0.9-0.6,3.6-1.5,3.9
					c-0.8,0.3-4.9-0.2-5.5-1.9c2.4,0.6,2.6-0.3,2.6-0.3s-2.2,0-3.1-1.5c1.7,0.6,2.5,0,2.5,0s-3.4-1.3-3.5-2L136.1,119.9L136.1,119.9
					z M132.7,123.6l0.1-0.6c0.2,8,6,9.3,6,13.2c0,0.1,0,0.3,0,0.4h-1c0.1-0.8-0.1-1.5-0.6-2.2c-3.8-5.1-3.9-6.1-3.9-6.1
					c0.3,3.9,2.8,4.3,3.4,8.3H135C134.4,133.6,131.4,132.4,132.7,123.6z M133,136.5h-2.8l1.5-2.4C132.5,135.1,132.9,135.9,133,136.5
					z M128.5,136.5h-1.8c2.8-5.1,1.2-13.5,3.6-16C128.6,123.5,131.2,130.7,128.5,136.5z M129.2,117.2c-1.1,1-6.3,5.5-4.7,17.8
					c1.6-2.7,0.3-12.7,5-16.4c-3.4,4.1-1.6,11.3-4,17.9h-2.3C123.9,131.3,121,123.4,129.2,117.2z M119.8,136.5h-1.1
					c0.8-1.1,1.3-2.4,2-3.9C120.7,133.6,120.6,135.1,119.8,136.5z M125.1,115.4c1,1.1-5.2,3.9-8.2,2.8
					C122,118.3,124.1,114.3,125.1,115.4z M118.1,119.4c3.5,0,5.5-1.1,6.4-2c-0.3,2.5-3,3.4-6.4,3.4c-3.4,0-6.5-3.7-9.1-1.3
					c4.5-0.5,5.2,4.2,10.3,2.7c-4.4,4.8-7.7-3.6-12.7-1.2C109.2,114.9,114.7,119.4,118.1,119.4z M92.9,127.1
					c2.7-3.9,4.7,1.5,9.1-1.5c1.5,2.3-2.1,3.7-4.2,2.5C95.7,126.7,94.1,126.7,92.9,127.1z M105.8,129.9c-2,1.5-6.8,3-6.8-0.2
					c5.1,1,6.3-6.3,10.9-4.1C108.7,125.7,107.7,128.4,105.8,129.9z M120.1,128.2c0,2.8-0.4,4.8-1,6.3l-7.4,2.1h-6.6L120.1,128.2z"/>
				<path class="st1" d="M148.2,97.8c-3.5,0.4-3,5.3-0.3,5.3c2.7,0,3.1-1.3,5.1-1.3c2,0,2.8,1.3,4.4,1.3s2.6-1.1,1.8-2.2
					c-1.1,1.7-2.9-0.6-4.3-0.6c-2.1,0-3,0.9-4.4,1.6c-1.5,0.8-3,0.1-2.5-0.9C146.9,100.9,146.2,99.5,148.2,97.8z"/>
				<path class="st1" d="M161.2,82.9c-3.5,5.1,1.1,10.4-6.1,12.2c8.6,0.1,4.1-7.3,7.3-11.5c3.2-4.2,6.7-2.7,7.9-7.5
					C168.3,80,163.1,79.9,161.2,82.9z"/>
				<path class="st1" d="M151.2,92.6c-2-2-1.1-5.4-1.1-5.4S147,91.1,151.2,92.6z"/>
				<path class="st1" d="M163.5,84.6c-2.8,4.1,0.4,10.1-5.4,11.8c7.3,0.2,3.8-8.3,6.5-11.2c2.3-3.4,4.4-2.8,5.5-6.4
					C168.5,81.6,165,82.2,163.5,84.6z"/>
				<path class="st1" d="M173.7,97.2c-6-2.5-9.6,3.2-9.6,4.9c1.5-0.7,3.9-3.4,4.8-3.9C170.6,97.1,173.1,97.8,173.7,97.2z"/>
				<path class="st1" d="M159.5,106.1c0.4,1,2.2-1.2,4.9-0.4C163.1,104.9,159.3,104.9,159.5,106.1z"/>
				<path class="st1" d="M179.5,94.1c-1.3,6-12.4,1.5-12.3,10C169.5,100,180.4,100.4,179.5,94.1z"/>
				<path class="st1" d="M157.5,108.9c0.2,1.3,2.4-1.4,6.7,0.4C162.8,107.3,157.2,107.1,157.5,108.9z"/>
				<path class="st1" d="M148.8,92.6c-4.3-7.1,5.8-8.7,2.9-14.6C152,82.6,142.4,87.3,148.8,92.6z"/>
				<path class="st1" d="M149.9,120c-0.6,0.4-2,0.8-3,1.5c-0.1,0.2-0.3,0.9-0.6,1C147.4,122.8,149.8,121.2,149.9,120z"/>
				<path class="st1" d="M136,103.6c-1.6-0.3-3.7,1.3-5.6,2.3c1.8,2.7,6.1,2.9,7.8,3.8C138.5,109.1,139.8,104.4,136,103.6z
					 M134.1,107.9c-1.7-0.6-1-4,1.3-3.5C135.2,104.7,134.2,106.7,134.1,107.9z M135.4,108.3c0.8-0.8,1.3-2.8,1.5-3.1
					C138.5,106.5,136.8,108.8,135.4,108.3z"/>
				<path class="st1" d="M142.1,100.9c-1.8,2.2-3.2-0.2-5.5-0.2c-2,0-4.4,2.2-4.8,0.8c-0.3-1.1,1.8-3,4.4-3.2
					c-2.3-0.6-6.1,1.5-6.7,3.8c-0.8,0.1-1.3-0.1-1.3-0.1c1,3.9,4.9-0.1,6.8-0.1C136.7,101.9,142,105.7,142.1,100.9z"/>
				<path class="st1" d="M141.6,76.9l2,5.3c0,0-1.8,2.2-1.8,6c0,7.5,6.1,8.2,5.7,5.1c-4.3,2-4.5-4.2-3.4-5.6c0,0-0.8,3.2,2.1,4.4
					c-3.8-6.3,3.7-8.7,3.7-13.8c0-4.2-2.6-5.6-2.5-9.4c0.1-4.7,6.9-5.9,7-4.1c0.1,1.3-5,1.5-5.1,6.2c-0.1,4.5,4.9,5.6,4.9,10
					c-0.1,2.9-5.2,5.5-2,10.9l7.3-20.7l-5.6,6.3c-1.8-2.2-3.2-2.5-3.2-6.5c0-4,4.4-4.6,4.4-6.5c0-1.5-2.2-1.7-3.9-1.8
					c-2.5-0.1-7,2.1-7,6.7c0,4.7,3.2,7,0,11.4L141.6,76.9z M148.2,75.9c2,6.3-4.6,8-5.1,12.2C142.7,83,148.9,80.6,148.2,75.9z"/>
				<path class="st1" d="M136.8,110.4c-1-0.7-4.7-0.6-6.8-2.7c0,0-0.1,0.4,0.1,0.8c-2.5,1-1.8,3.4-1.8,3.4s1.6-2,2.7-2
					c0,0-0.3,1.6,0.3,2.3l0.2,0.3C130.6,109.3,136.8,110.4,136.8,110.4z"/>
				<path class="st1" d="M118,81l4.6,2.2c0.1,1.6,0.8,3.2,2.4,5.1c1.8,2.1,6.7,2.7,6.8,7.6c1.5-1.5,0.3-4.9-3-6.9
					c-12.4-7.2,8.4-18.6-4.9-22.7c11.5-0.8,6.6,9.6,7.5,13.8c1.3,5.8,6.6,4.4,9.4,8l-3.1-17.5l-3,12.2c-3.9-0.6-2.5-6.1-2.4-11.2
					c0.2-9.6-16.2-6.8-13.9-1.5c0.8,2,6.4-2.5,6.4,2.3c0,3.3-2,6.1-2.3,9.4L118,81z M119.6,69.5c-1.1-1.3,4.4-2.9,5.5,0.5
					C122.3,68.2,120.1,70.1,119.6,69.5z"/>
				<path class="st1" d="M129.4,79.5c-5.5,10.3,13.4,5.6,10.9,14.3C144.3,84.4,127.3,89.7,129.4,79.5z"/>
				<path class="st1" d="M178.2,126.7c3.1-0.1,5.6-3.2,7.4-4.3c-2.5,0.6-3.9,2.9-7.4,2.9c-5.7,0.1-8.7-16.1-18.5-12.8
					C169.7,113.3,169.5,126.8,178.2,126.7z"/>
				<path class="st1" d="M136.1,92.8c-0.3,0-0.5-0.1-0.8-0.3c-1.3-0.8-2-3-3.3-2.8c0.8,0.6,0.4,2.7,1.5,3.9c0.5,0.6,1.3,1,2.1,1
					c1.6,0,2.8-1.3,2.8-2.8c0-0.9-0.4-1.7-1.1-2.2c-1-0.8-2.4-1.3-6.5-2.7c-9.8-3.3,4.8-13.2-1.9-18.7c3.7,8-7.1,12.7-1.5,18.3
					c2.4,2.5,7.7,2.2,9.6,3.9c0.3,0.3,0.4,0.6,0.4,1C137.5,92.2,137,92.8,136.1,92.8z"/>
				<path class="st1" d="M127.8,98.7c-1.8-0.1-4.6-0.9-5.6-3.2C121.3,97.6,124.1,103.4,127.8,98.7z"/>
				<path class="st1" d="M150.7,121.6c-0.1,0.3-0.9,0.6-2.5,1.2c-0.2,0.4-0.7,1-1.2,1.3C148.9,124.6,151,122.6,150.7,121.6z"/>
				<path class="st1" d="M158.8,104.5c0.4,0.6,1-0.6,2.1-1.2C159.5,103.1,158.6,104.1,158.8,104.5z"/>
				<path class="st1" d="M157.7,105.4c-2-0.9-3.9-2.6-5.6-2.3c-3.9,0.8-2.5,5.5-2.2,6C151.6,108.2,155.9,108,157.7,105.4z
					 M154,107.3c0,0-1.1-3.2-1.3-3.5C155,103.3,155.7,106.6,154,107.3z M151.2,104.6c0.1,0.3,0.7,2.3,1.5,3.1
					C151.2,108.3,149.6,105.9,151.2,104.6z"/>
				<path class="st1" d="M166.1,94c-1.7,1.9-1.6,3.4-4.2,5.1c3.4,1.5,3.4-3,6.8-3.9c2.3-0.7,4,2.1,7.3,0.6c3.3-1.5,2.1-7.5,3.7-10.2
					s6-5.1,9.1,0.3c0,0-5.3-5.1-7.7,1c1.7-1.4,4.2-1.8,4.2-0.5c-1.3,0.4-3.5,1.2-3.5,6c-0.1,5.6-2.3,6.8-4.1,8
					c-2.5,1.7-8.4,1.6-9.8,5.4l20.5-9.1h-6.3c0.8-4.6-1-11.4,7.6-9.8c1.1-2.3-6.1-9.6-12.3-1.3l-0.6-2.1
					C175.6,94.4,169.7,90.1,166.1,94z M177,88.4c1.1,1.8-2.1,5.1-2.1,5.1c0.8,0.3,0.8,1.5-0.3,1.8c-1.8,0.6-3.4-1.5-5.7-1
					C169.4,93.5,174.4,93.7,177,88.4z"/>
				<path class="st1" d="M126.3,101.5c-8.6,0.1-2.3-9.3-8.7-10.7c3.3,2.2,1.5,4.2,1.5,7.9C119.2,103,124.4,104.3,126.3,101.5z"/>
				<path class="st1" d="M156.5,88.8c-1,2.7-3.7,3.5-5.1,5.8c0.8,0,4.8-0.9,6.3-3.4c1.5-2.4,0-9.5,4.6-11.2
					c4.8-1.8,9.8-4.5,4.2-10.3c8.7,2.2,3.8,11.5,2.8,12.9c-1,1.3-4.2,3.8-4.2,7.9c0,3-2.7,6.5-4.8,6.9c2.2,0.9,5.6-4.2,5.6-4.2
					l10.9-14.1l-6.3,3.2c0,0,1.7-1.5,1.7-6.4c0-6.9-7.4-8.2-7.4-6c0.1,1.5,2.5,2.5,2.6,4.8c0.1,2.3-3.2,3.7-5.8,4.4l-1.1-3.9v4.4
					C156.2,81.8,157.6,85.9,156.5,88.8z"/>
			</g>
		</g>
	</g>
</g>
</svg>
