<?xml version="1.0" encoding="utf-8"?>
<!-- Generator: Adobe Illustrator 21.1.0, SVG Export Plug-In . SVG Version: 6.00 Build 0)  -->
<svg version="1.1" id="Layer_1" xmlns="http://www.w3.org/2000/svg" xmlns:xlink="http://www.w3.org/1999/xlink" x="0px" y="0px"
	 viewBox="0 0 297 251" style="enable-background:new 0 0 297 251;" xml:space="preserve">
<style type="text/css">
	.st0{fill:#D51317;}
</style>
<path class="st0" d="M262.3,162.1c0.2-0.2,0.4-0.4,0.5-0.6c0.1-0.2,0.2-0.6,0.2-1.1v-35c0-0.5-0.1-0.8-0.2-1.1
	c-0.1-0.2-0.3-0.5-0.5-0.6c-0.5-0.4-1.8-0.6-3.7-0.6c-2,0-3.2,0.2-3.7,0.6c-0.2,0.2-0.4,0.4-0.5,0.6c-0.1,0.2-0.2,0.6-0.2,1.1v35
	c0,0.8,0.2,1.4,0.7,1.7c0.5,0.4,1.8,0.6,3.7,0.6C260.6,162.7,261.8,162.5,262.3,162.1z M236.3,162.3c2-0.7,3.6-1.6,4.9-2.9
	c1.3-1.2,2.2-2.7,2.8-4.3c0.6-1.7,0.9-3.5,0.9-5.4v-24.3c0-0.8-0.2-1.4-0.6-1.7c-0.6-0.4-1.8-0.6-3.7-0.6c-2,0-3.2,0.2-3.7,0.6
	c-0.2,0.2-0.4,0.4-0.5,0.6c-0.1,0.2-0.1,0.6-0.1,1.1v24.1c0,1-0.2,1.9-0.5,2.9c-0.3,1-1.1,1.8-2.2,2.5c-1.1,0.7-2.6,1-4.5,1
	c-1.3,0-2.4-0.2-3.3-0.5c-0.9-0.3-1.6-0.7-2.2-1.3c-0.6-0.6-1-1.2-1.3-2c-0.3-0.8-0.4-1.7-0.4-2.6v-24.1c0-0.8-0.2-1.4-0.6-1.7
	c-0.6-0.4-1.8-0.6-3.7-0.6c-2,0-3.2,0.2-3.7,0.6c-0.2,0.2-0.4,0.4-0.5,0.6c-0.1,0.2-0.1,0.6-0.1,1.1v24.3c0,2,0.3,3.8,0.9,5.4
	c0.6,1.7,1.5,3.1,2.8,4.3c1.3,1.2,2.9,2.2,4.9,2.9c2,0.7,4.4,1,7.2,1C231.9,163.3,234.3,163,236.3,162.3z M193.5,162.1
	c0.2-0.2,0.4-0.4,0.5-0.6c0.1-0.2,0.1-0.6,0.1-1.1v-29.8h8.7c0.6,0,1.2-0.1,1.6-0.2c0.4-0.1,0.7-0.4,0.9-0.8
	c0.3-0.5,0.5-1.2,0.6-2.1c0.1-0.9,0.2-1.6,0.2-2.2c0-0.5,0-0.8-0.1-1c-0.1-0.2-0.2-0.4-0.5-0.6c-0.2-0.1-0.4-0.2-0.6-0.2
	c-0.3,0-0.6-0.1-1.1-0.1h-27.1c-0.6,0-1.2,0.1-1.6,0.2c-0.4,0.1-0.7,0.4-0.9,0.8c-0.3,0.5-0.5,1.1-0.6,1.9c-0.1,0.8-0.2,1.6-0.2,2.4
	c0,0.5,0,0.8,0.1,1.1c0.1,0.2,0.2,0.4,0.5,0.6c0.3,0.2,0.9,0.3,1.7,0.3h9.7v29.8c0,0.8,0.2,1.4,0.7,1.7c0.5,0.4,1.8,0.6,3.7,0.6
	C191.7,162.7,193,162.5,193.5,162.1z M28.4,109.9c0,3,0.2,8.3,6.6,7.9l7.8-0.6c12.8,79,78.1,73.1,97.5,13.9c2.6-8,1.9-10.8-3.6-12.2
	c-4.1-1-5.3,0.4-9,8.4c-22.5,48-63.7,33.5-70.8-11.1l9.6-0.7c5.3-0.4,5.7-3.7,4.7-8.4c-0.9-4.3-3.1-5.2-6.1-5.2H34.5
	C30.6,101.9,28.4,104,28.4,109.9z M134.2,84.6c0,6.3,5.1,11.3,11.3,11.3c6.3,0,11.3-5.1,11.3-11.3c0-6.3-5.1-11.3-11.3-11.3
	C139.2,73.3,134.2,78.3,134.2,84.6z"/>
</svg>
